<svg xmlns="http://www.w3.org/2000/svg" viewBox="0 0 366.14 151.56"><defs><style>.cls-1{fill:#fff;}</style></defs><title>Devices</title><g id="Layer_2" data-name="Layer 2"><g id="Layer_1-2" data-name="Layer 1"><path class="cls-1" d="M361.86,4.28A14,14,0,0,0,351.57,0H205.84a14,14,0,0,0-10.29,4.28,14,14,0,0,0-4.28,10.29v99.1a14.61,14.61,0,0,0,14.57,14.57h49.55a19.12,19.12,0,0,1-1.46,7.11,65.4,65.4,0,0,1-2.91,6.37,10.09,10.09,0,0,0-1.46,4,5.93,5.93,0,0,0,5.83,5.83H302a5.93,5.93,0,0,0,5.83-5.83,10.25,10.25,0,0,0-1.46-4,68,68,0,0,1-2.91-6.47,19.23,19.23,0,0,1-1.46-7.06h49.55a14.61,14.61,0,0,0,14.57-14.57V14.57A14.06,14.06,0,0,0,361.86,4.28Zm-7.38,86.07a2.83,2.83,0,0,1-.86,2.05,2.79,2.79,0,0,1-2.05.86H205.84a2.79,2.79,0,0,1-2.05-.86,2.83,2.83,0,0,1-.86-2.05V14.57a2.79,2.79,0,0,1,.86-2.05,2.83,2.83,0,0,1,2.05-.86H351.57a2.94,2.94,0,0,1,2.91,2.91V90.35Z"/><path class="cls-1" d="M169.59,18.62H90.37a9,9,0,0,0-9,9V142.53a9,9,0,0,0,9,9h79.22a9,9,0,0,0,9-9V27.65A9,9,0,0,0,169.59,18.62ZM130,148.18a5.37,5.37,0,1,1,5.36-5.36A5.35,5.35,0,0,1,130,148.18Zm39.5-15.42h-79V29.47h79Z"/><path class="cls-1" d="M58.64,32.73h-50A8.65,8.65,0,0,0,0,41.38V142.91a8.65,8.65,0,0,0,8.65,8.65h50a8.65,8.65,0,0,0,8.65-8.65V41.38A8.65,8.65,0,0,0,58.64,32.73ZM21.31,38H46c.62,0,1.13.93,1.13,2.08s-.51,2.09-1.13,2.09H21.31c-.63,0-1.13-.94-1.13-2.09S20.68,38,21.31,38ZM33.65,143a5.52,5.52,0,1,1,5.51-5.52A5.52,5.52,0,0,1,33.65,143ZM60.81,124.1H6.48V47.33H60.81V124.1Z"/></g></g></svg>