<svg xmlns="http://www.w3.org/2000/svg" viewBox="0 0 84.55 84.55"><defs><style>.cls-1{fill:#fff;}.cls-2{fill:#1e201d;}</style></defs><title>Commits</title><g id="Layer_2" data-name="Layer 2"><g id="Layer_1-2" data-name="Layer 1"><path class="cls-1" d="M40.75,60V28.78l-9.47,9.47a1.31,1.31,0,0,1-1.85,0,1.38,1.38,0,0,1-.4-.94v24h13A1.3,1.3,0,0,1,40.75,60Z"/><path class="cls-1" d="M42.28,0A42.28,42.28,0,1,0,84.55,42.28,42.28,42.28,0,0,0,42.28,0ZM55.52,61.34H29v-24h0V23.21H55.52Z"/><path class="cls-1" d="M29,37.31a1.36,1.36,0,0,1,.4-.93L41.14,24.67a1.29,1.29,0,0,1,1.85,0L54.7,36.38a1.32,1.32,0,0,1,0,1.87,1.33,1.33,0,0,1-1.87,0l-9.45-9.47V60a1.32,1.32,0,0,1-1.32,1.31H55.52V23.21H29Z"/><path class="cls-2" d="M43.38,60V28.78l9.45,9.47a1.33,1.33,0,0,0,1.87,0,1.32,1.32,0,0,0,0-1.87L43,24.67a1.29,1.29,0,0,0-1.85,0L29.43,36.38a1.36,1.36,0,0,0-.4.93h0a1.38,1.38,0,0,0,.4.94,1.31,1.31,0,0,0,1.85,0l9.47-9.47V60a1.3,1.3,0,0,0,1.31,1.31A1.32,1.32,0,0,0,43.38,60Z"/></g></g></svg>