<svg xmlns="http://www.w3.org/2000/svg" viewBox="0 0 122.17 20.86"><defs><style>.cls-1{fill:#fff;}.cls-2{fill:#333;}</style></defs><title>Stars</title><g id="Layer_2" data-name="Layer 2"><g id="Layer_1-2" data-name="Layer 1"><polygon class="cls-1" points="10.96 0 14.35 6.87 21.93 7.97 16.45 13.31 17.74 20.86 10.96 17.29 4.19 20.86 5.48 13.31 0 7.97 7.58 6.87 10.96 0"/><polygon class="cls-1" points="36.02 0 39.41 6.87 46.99 7.97 41.51 13.31 42.8 20.86 36.02 17.29 29.25 20.86 30.54 13.31 25.06 7.97 32.64 6.87 36.02 0"/><polygon class="cls-1" points="61.08 0 64.47 6.87 72.05 7.97 66.57 13.31 67.86 20.86 61.08 17.29 54.31 20.86 55.6 13.31 50.12 7.97 57.7 6.87 61.08 0"/><polygon class="cls-1" points="86.14 0 89.53 6.87 97.11 7.97 91.63 13.31 92.92 20.86 86.14 17.29 79.37 20.86 80.66 13.31 75.18 7.97 82.75 6.87 86.14 0"/><polygon class="cls-2" points="111.2 0 114.59 6.87 122.17 7.97 116.69 13.31 117.98 20.86 111.2 17.29 104.43 20.86 105.72 13.31 100.24 7.97 107.81 6.87 111.2 0"/></g></g></svg>